<?xml version="1.0" encoding="UTF-8" standalone="no"?>
<!-- Created with Inkscape (http://www.inkscape.org/) -->

<svg
   xmlns:dc="http://purl.org/dc/elements/1.1/"
   xmlns:cc="http://creativecommons.org/ns#"
   xmlns:rdf="http://www.w3.org/1999/02/22-rdf-syntax-ns#"
   xmlns:svg="http://www.w3.org/2000/svg"
   xmlns="http://www.w3.org/2000/svg"
   xmlns:sodipodi="http://sodipodi.sourceforge.net/DTD/sodipodi-0.dtd"
   xmlns:inkscape="http://www.inkscape.org/namespaces/inkscape"
   version="1.1"
   id="svg872"
   width="377.34241"
   height="555.61621">
  <metadata
     id="metadata878">
    <rdf:RDF>
      <cc:Work
         rdf:about="">
        <dc:format>image/svg+xml</dc:format>
        <dc:type
           rdf:resource="http://purl.org/dc/dcmitype/StillImage" />
      </cc:Work>
    </rdf:RDF>
  </metadata>
  <defs
     id="defs876" />
  <sodipodi:namedview
     pagecolor="#ffffff"
     bordercolor="#39474D"
     borderopacity="1"
     objecttolerance="10"
     gridtolerance="10"
     guidetolerance="10"
     inkscape:pageopacity="0"
     inkscape:pageshadow="2"
     inkscape:window-width="640"
     inkscape:window-height="480"
     id="namedview874" />
  <inkscape:clipboard
     style="font-variant-east_asian:normal;opacity:1;vector-effect:none;fill:#39474D;fill-opacity:1;stroke-width:0.99999995;stroke-linecap:butt;stroke-linejoin:miter;stroke-miterlimit:4;stroke-dasharray:none;stroke-dashoffset:0;stroke-opacity:1"
     min="186.93435,443.4856"
     max="564.27674,999.10182" />
  <path
     sodipodi:nodetypes="sccccccccssccccsscsccccsssccscccsccscccccccsssscsscccsscscscccccccccccscccsccssscscssssssscssccccsccsssssscccsscscs"
     inkscape:connector-curvature="0"
     id="path861"
     d="M 49.476478,553.96699 C 33.352121,550.06413 19.389639,537.17678 13.854169,521.08763 11.1749,513.30022 10.348997,505.15881 11.866618,501.49498 c 2.411512,-5.82191 10.4005,-7.44469 14.476652,-2.94055 0.939549,1.03816 2.29428,5.26223 3.01053,9.38679 2.2309,12.84685 8.480928,21.48318 19.352478,26.74137 3.563441,1.7235 6.487109,2.25717 12.636121,2.30657 6.97259,0.0559 8.764471,-0.32088 13.952599,-2.93571 10.420992,-5.25199 19.000051,-14.99637 32.135032,-36.49999 7.28861,-11.93242 15.03297,-20.17493 22.31625,-23.75176 5.11901,-2.51396 6.57659,-2.74825 17.09612,-2.74825 10.54035,0 11.91724,0.22261 16.5,2.66581 7.00243,3.73342 13.42327,10.58646 14.15739,15.11037 0.50655,3.12147 0.16172,4.05853 -2.45715,6.67744 -4.55073,4.5507 -9.28793,4.26841 -14.06576,-0.83822 -4.84703,-5.18056 -6.94938,-6.11539 -13.75301,-6.11539 -11.55313,0 -15.60221,3.67185 -29.38147,26.64431 -8.0711,13.45595 -23.09646,29.19522 -32.58145,34.12955 -11.679091,6.07578 -23.512592,7.61004 -35.784472,4.63967 z m 252.984362,0.47429 c -16.96097,-3.98184 -32.33537,-18.27243 -49.36804,-45.88785 -7.8054,-12.65503 -10.89925,-16.12063 -16.46827,-18.44693 -4.1498,-1.73348 -12.35236,-2.04714 -16.11575,-0.61632 -1.35511,0.51522 -4.27412,2.76521 -6.48669,5.00001 -4.39827,4.44245 -7.32873,5.07178 -12.10817,2.60024 -3.2307,-1.67067 -4.07153,-3.32497 -4.07153,-8.0106 0,-4.86017 7.12006,-12.40959 15.06757,-15.97621 5.70626,-2.56082 6.9278,-2.73861 16.30046,-2.37226 17.84281,0.69736 25.54689,6.17881 38.74077,27.56409 12.91037,20.92581 22.24365,31.22571 32.63856,36.01875 11.09227,5.11457 24.73278,2.90268 34.39019,-5.57665 5.2255,-4.58805 9.74109,-13.72959 10.53528,-21.32803 0.5308,-5.07832 1.21364,-6.89639 3.41832,-9.10106 3.5534,-3.5534 7.73677,-3.61214 11.83211,-0.1663 2.77221,2.33261 3.07559,3.14925 3.06489,8.24999 -0.0265,12.47977 -5.30989,24.56772 -14.91518,34.12263 -12.32111,12.25648 -30.43578,17.68698 -46.45452,13.92631 z M 171.8424,409.95701 C 111.7431,405.83816 73.054788,392.8108 62.534568,373.15023 L 60.3424,369.05345 59.842399,280.72914 59.342398,192.40482 52.14394,189.60436 C 25.923078,179.4035 7.9901981,158.97159 1.3792487,131.76534 -0.78959161,122.83985 -0.32820955,102.44267 2.254901,93.053447 7.4787297,74.065576 20.49252,56.199284 36.7561,45.687621 60.21946,30.522523 88.2985,28.495045 115.902,39.972805 c 1.11449,0.463411 2.44879,-0.723746 4.67514,-4.15959 10.2117,-15.759341 27.75795,-28.3264516 47.26526,-33.8526803 9.10235,-2.57860919 32.76475,-2.6226747 41.99999,-0.078236 10.12607,2.7898885 23.79363,9.8934763 31.48236,16.3626673 6.01006,5.056788 14.63845,15.001606 18.03791,20.789949 0.95165,1.620355 1.42621,1.56641 7.05245,-0.801649 14.87573,-6.261113 37.81228,-7.426269 52.9273,-2.688665 26.93503,8.44244 47.07764,28.725505 55.65596,56.044071 2.02276,6.441626 2.34402,9.520678 2.34402,22.464758 0,12.94408 -0.32126,16.02313 -2.34402,22.46476 -7.87159,25.06796 -25.3965,44.4754 -48.0285,53.18772 l -6.09812,2.34751 -0.0151,87.10079 c -0.0113,62.88019 -0.33374,88.04602 -1.16274,90.5 -6.47512,19.17176 -41.33741,33.77427 -92.85196,38.89224 -11.37452,1.13004 -46.0985,2.02057 -54.99999,1.41052 z m 60.00001,-19.8223 c 32.58939,-3.94673 59.64348,-12.71649 67.76504,-21.9665 l 3.23494,-3.68436 v -84.46522 -84.46518 h -6.91204 c -13.73322,0 -34.92287,-6.10765 -40.4843,-11.66908 -3.66414,-3.66414 -3.53835,-8.55007 0.31937,-12.40785 3.66441,-3.6644 5.57144,-3.65616 14.03993,0.0607 18.50683,8.1227 37.08431,8.0036 54.03367,-0.34643 17.18654,-8.46685 28.32681,-21.72274 34.02683,-40.48874 3.07581,-10.1265 2.49906,-27.33678 -1.25307,-37.390148 -9.41129,-25.216653 -30.86124,-40.97864 -57.77042,-42.451306 -12.01769,-0.657695 -20.16079,1.158293 -32.37989,7.221014 -13.69323,6.794135 -15.55412,6.299048 -21.76037,-5.789401 -5.74907,-11.197992 -17.27146,-22.765437 -27.85973,-27.968746 -18.49262,-9.087655 -38.50739,-9.087655 -57.00001,0 -10.51504,5.167306 -22.11561,16.779549 -27.77187,27.799805 -3.89739,7.593415 -6.74965,10.430154 -10.4872,10.430154 -0.64073,0 -5.23206,-2.004442 -10.20295,-4.454317 -4.97089,-2.449874 -11.96298,-5.143222 -15.537978,-5.985218 -32.04979,-7.548469 -64.838329,11.652476 -75.033469,43.939537 -2.872641,9.097366 -3.12683,26.022706 -0.525653,34.999996 4.89018,16.87717 17.469381,32.01121 32.758243,39.41144 18.2302,8.82393 36.30581,9.2061 54.648527,1.15543 8.1857,-3.59273 10.95682,-3.79512 14.44071,-1.05468 5.51303,4.33655 4.19819,11.73506 -2.78836,15.6899 -8.70405,4.92706 -25.89572,9.27309 -36.749998,9.29036 l -4.750001,0.008 0.03553,84.25003 c 0.02684,64.17789 0.324775,84.76603 1.249999,86.41599 1.728303,3.0822 5.574101,5.87879 13.409401,9.7511 16.324669,8.06786 38.516109,12.7183 76.305159,15.99047 9.50321,0.82287 51.07612,-0.3823 63,-1.82631 z M 172.91759,161.52706 c -20.25351,-4.25232 -39.15309,-16.38678 -50.57812,-32.47361 -5.68968,-8.01127 -10.49707,-17.77778 -10.49707,-21.32546 0,-4.21401 4.05547,-8.174542 8.37046,-8.174542 5.45938,0 6.51787,0.828192 10.06766,7.877122 11.86646,23.56363 33.09719,37.15355 57.97184,37.1081 24.67053,-0.0451 46.5241,-13.72235 57.25815,-35.83558 2.91961,-6.01461 4.20612,-7.61698 7.07962,-8.817596 2.84198,-1.187467 4.06658,-1.237398 6.42179,-0.261845 6.55813,2.716471 7.37575,7.903391 2.71257,17.208311 -4.72687,9.432 -11.08184,17.82911 -18.87855,24.94502 -8.47408,7.73413 -17.42861,12.89916 -29.50356,17.01783 -7.99824,2.72816 -10.50259,3.10276 -22.49998,3.36555 -7.425,0.16263 -15.49117,-0.12234 -17.92481,-0.6333 z"
     style="fill:#39474D;stroke-width:0.99999994" />
</svg>
